<svg width="216" height="209" viewBox="0 0 216 209" fill="none" xmlns="http://www.w3.org/2000/svg">
<path d="M155.595 62.9075L115.331 105.577C114.825 106.089 114.125 106.38 113.393 106.383C112.66 106.386 111.958 106.101 111.447 105.593L100.12 94.7396C99.5904 94.2503 99.2893 93.5738 99.286 92.8655C99.2827 92.1573 99.5775 91.4783 100.103 90.9847L143.89 51.6903C144.927 50.7258 146.566 50.7191 147.612 51.6751L155.416 59.1532C155.968 59.6209 156.298 60.2854 156.332 60.9937C156.366 61.702 156.1 62.393 155.595 62.9075ZM106.304 113.49L92.1595 99.8833C91.3024 99.0207 90.1858 98.4413 88.9686 98.2274C88.088 98.1776 87.2051 98.1812 86.325 98.2383C80.5999 98.2574 75.1178 100.475 71.0856 104.403C60.3442 114.877 68.652 126.265 59.9707 138.869C59.2615 139.903 59.4032 141.276 60.3097 142.154C63.0726 144.186 66.4561 145.273 69.9275 145.243C81.728 145.961 93.2908 141.822 101.76 133.848C105.8 129.903 108.047 124.563 108.003 119.011C107.999 118.176 107.995 117.29 107.991 116.455C107.785 115.313 107.192 114.27 106.304 113.49Z" fill="black"/>
</svg>
