<svg width="180" height="180" viewBox="0 0 180 180" fill="none" xmlns="http://www.w3.org/2000/svg">
<g clip-path="url(#clip0_52_1412)">
<path d="M149.4 97.896C149.4 95.4424 149.067 93.0001 148.41 90.636L138.906 57.636C137.312 51.9517 132.138 48.0169 126.234 48H53.634C47.798 48.0669 42.6986 51.9585 41.094 57.57L31.59 90.57C30.9272 92.9554 30.5941 95.4203 30.6 97.896V147C30.6 150.645 33.5549 153.6 37.2 153.6H43.8C47.4451 153.6 50.4 150.645 50.4 147V140.4H129.6V147C129.6 150.645 132.555 153.6 136.2 153.6H142.8C146.445 153.6 149.4 150.645 149.4 147V97.896ZM52.182 60.738C52.3873 60.034 53.0327 59.55 53.766 59.55H126.366C127.099 59.55 127.745 60.034 127.95 60.738L135.474 87.6H44.526L52.182 60.738ZM63.6 114C63.6 117.645 60.6451 120.6 57 120.6H50.4C46.7549 120.6 43.8 117.645 43.8 114V107.4C43.8 103.755 46.7549 100.8 50.4 100.8H57C60.6451 100.8 63.6 103.755 63.6 107.4V114ZM136.2 114C136.2 117.645 133.245 120.6 129.6 120.6H123C119.355 120.6 116.4 117.645 116.4 114V107.4C116.4 103.755 119.355 100.8 123 100.8H129.6C133.245 100.8 136.2 103.755 136.2 107.4V114Z" fill="black"/>
<path d="M181.492 43.6494V56.8818H132.761V43.6494H181.492ZM164.402 24.7529V76.5107H150.047V24.7529H164.402Z" fill="black"/>
</g>
<defs>
<clipPath id="clip0_52_1412">
<rect width="180" height="180" fill="white"/>
</clipPath>
</defs>
</svg>
