<svg width="240" height="240" viewBox="0 0 240 240" fill="none" xmlns="http://www.w3.org/2000/svg">
<g clip-path="url(#clip0_52_1381)">
<path d="M140.036 95C140.036 81.1929 151.233 70 165.044 70C178.855 70 190.051 81.1929 190.051 95C190.051 108.807 178.855 120 165.044 120C151.233 120 140.036 108.807 140.036 95ZM90.0212 110C106.595 110 120.03 96.5685 120.03 80C120.03 63.4315 106.595 50 90.0212 50C73.4476 50 60.0121 63.4315 60.0121 80C60.0121 96.5685 73.4476 110 90.0212 110ZM144.538 146.6C139.448 136.408 129.024 129.978 117.63 130H62.4128C51.0184 129.978 40.5942 136.408 35.5047 146.6L21.1003 175.5C19.5402 178.595 19.6945 182.277 21.5081 185.231C23.3217 188.185 26.5361 189.99 30.003 190H150.039C153.506 189.99 156.721 188.185 158.534 185.231C160.348 182.277 160.502 178.595 158.942 175.5L144.538 146.6ZM218.96 175.5L209.457 156.5C204.356 146.38 193.985 139.997 182.649 140H163.543L176.847 166.6C180.502 173.874 181.044 182.32 178.348 190H210.058C213.524 189.99 216.739 188.185 218.552 185.231C220.366 182.277 220.52 178.595 218.96 175.5Z" fill="black"/>
</g>
<defs>
<clipPath id="clip0_52_1381">
<rect width="240" height="240" fill="white"/>
</clipPath>
</defs>
</svg>
